<svg xmlns="http://www.w3.org/2000/svg" xmlns:xlink="http://www.w3.org/1999/xlink" width="287" zoomAndPan="magnify" viewBox="0 0 215.25 152.249993" height="203" preserveAspectRatio="xMidYMid meet" version="1.0"><defs><g/><clipPath id="5760f9f888"><path d="M 98.863281 39.078125 L 168.832031 39.078125 L 168.832031 72.660156 L 98.863281 72.660156 Z M 98.863281 39.078125 " clip-rule="nonzero"/></clipPath></defs><g fill="#ffffff" fill-opacity="1"><g transform="translate(17.55214, 71.592991)"><g><path d="M 56.671875 -17 C 60.609375 -14.738281 62.578125 -11.195312 62.578125 -6.375 L 62.578125 0 L 42.890625 0 L 42.890625 -9.6875 C 42.890625 -11.257812 42.242188 -12.460938 40.953125 -13.296875 C 39.671875 -14.140625 37.828125 -14.5625 35.421875 -14.5625 L 25.96875 -14.5625 L 25.96875 0 L 3.9375 0 L 3.9375 -39.359375 L 44 -39.359375 C 50.082031 -39.359375 54.765625 -38.265625 58.046875 -36.078125 C 61.328125 -33.898438 62.96875 -30.796875 62.96875 -26.765625 C 62.96875 -22.359375 60.867188 -19.101562 56.671875 -17 Z M 38.5625 -24.796875 C 41.707031 -24.796875 43.28125 -25.375 43.28125 -26.53125 C 43.28125 -27.726562 41.707031 -28.328125 38.5625 -28.328125 L 25.96875 -28.328125 L 25.96875 -24.796875 Z M 38.5625 -24.796875 "/></g></g></g><g fill="#1848a0" fill-opacity="1"><g transform="translate(17.55214, 122.125091)"><g><path d="M 23.609375 -39.359375 L 0.78125 -39.359375 L 26.609375 0 L 48.640625 0 L 74.765625 -39.359375 L 51.953125 -39.359375 L 37.625 -17.78125 Z M 23.609375 -39.359375 "/></g></g></g><g fill="#ffffff" fill-opacity="1"><g transform="translate(97.093896, 122.125091)"><g><path d="M 49.578125 -6.140625 L 25.734375 -6.140625 L 21.875 0 L 0.625 0 L 26.765625 -39.359375 L 48.796875 -39.359375 L 74.609375 0 L 53.359375 0 Z M 43.203125 -16.375 L 37.78125 -25.1875 L 32.1875 -16.375 Z M 43.203125 -16.375 "/></g></g></g><g clip-path="url(#5760f9f888)"><path fill="#1848a0" d="M 104.808594 47.085938 L 138.175781 47.085938 C 141.09375 42.296875 146.367188 39.097656 152.386719 39.097656 C 161.570312 39.097656 169.015625 46.542969 169.015625 55.730469 C 169.015625 64.914062 161.570312 72.359375 152.386719 72.359375 C 146.367188 72.359375 141.09375 69.164062 138.175781 64.371094 L 131.394531 64.371094 L 126.210938 58.726562 L 122.257812 63.226562 L 118.441406 58.726562 L 114.488281 63.363281 L 110.261719 58.726562 L 106.582031 63.226562 L 98.675781 54.503906 Z M 159.609375 59.683594 C 161.792969 59.683594 163.5625 57.914062 163.5625 55.730469 C 163.5625 53.546875 161.792969 51.777344 159.609375 51.777344 C 157.429688 51.777344 155.65625 53.546875 155.65625 55.730469 C 155.65625 57.914062 157.429688 59.683594 159.609375 59.683594 Z M 159.609375 59.683594 " fill-opacity="1" fill-rule="nonzero"/></g><g fill="#ffffff" fill-opacity="1"><g transform="translate(8.898476, 141.807929)"><g><path d="M 1.3125 0.046875 C 1.195312 0.046875 1.097656 0.0078125 1.015625 -0.0625 C 0.941406 -0.144531 0.90625 -0.25 0.90625 -0.375 L 0.90625 -6.046875 C 0.90625 -6.171875 0.941406 -6.273438 1.015625 -6.359375 C 1.097656 -6.441406 1.195312 -6.484375 1.3125 -6.484375 L 3.484375 -6.484375 C 4.328125 -6.484375 4.957031 -6.304688 5.375 -5.953125 C 5.789062 -5.609375 6 -5.15625 6 -4.59375 C 6 -4.21875 5.894531 -3.878906 5.6875 -3.578125 C 5.488281 -3.273438 5.191406 -3.054688 4.796875 -2.921875 C 5.234375 -2.796875 5.535156 -2.515625 5.703125 -2.078125 C 5.867188 -1.640625 5.953125 -1.210938 5.953125 -0.796875 L 5.953125 -0.375 C 5.953125 -0.25 5.910156 -0.144531 5.828125 -0.0625 C 5.742188 0.0078125 5.644531 0.046875 5.53125 0.046875 C 5.40625 0.046875 5.300781 0.0078125 5.21875 -0.0625 C 5.144531 -0.144531 5.109375 -0.25 5.109375 -0.375 L 5.109375 -0.65625 C 5.109375 -0.957031 5.078125 -1.238281 5.015625 -1.5 C 4.960938 -1.769531 4.832031 -2.007812 4.625 -2.21875 C 4.414062 -2.425781 4.097656 -2.53125 3.671875 -2.53125 L 1.75 -2.53125 L 1.75 -0.375 C 1.75 -0.25 1.707031 -0.144531 1.625 -0.0625 C 1.539062 0.0078125 1.4375 0.046875 1.3125 0.046875 Z M 3.421875 -3.328125 C 3.953125 -3.328125 4.375 -3.429688 4.6875 -3.640625 C 5 -3.847656 5.15625 -4.144531 5.15625 -4.53125 C 5.15625 -4.90625 5.019531 -5.191406 4.75 -5.390625 C 4.488281 -5.585938 4.03125 -5.6875 3.375 -5.6875 L 1.75 -5.6875 L 1.75 -3.328125 Z M 3.421875 -3.328125 "/></g></g></g><g fill="#ffffff" fill-opacity="1"><g transform="translate(17.169444, 141.807929)"><g><path d="M 3.765625 0.09375 C 3.117188 0.09375 2.550781 -0.046875 2.0625 -0.328125 C 1.570312 -0.617188 1.191406 -1.015625 0.921875 -1.515625 C 0.660156 -2.015625 0.523438 -2.585938 0.515625 -3.234375 C 0.523438 -3.890625 0.660156 -4.46875 0.921875 -4.96875 C 1.191406 -5.46875 1.570312 -5.859375 2.0625 -6.140625 C 2.550781 -6.429688 3.117188 -6.578125 3.765625 -6.578125 C 4.421875 -6.578125 4.988281 -6.429688 5.46875 -6.140625 C 5.957031 -5.859375 6.332031 -5.460938 6.59375 -4.953125 C 6.863281 -4.453125 7.007812 -3.878906 7.03125 -3.234375 C 7.007812 -2.597656 6.863281 -2.023438 6.59375 -1.515625 C 6.332031 -1.015625 5.957031 -0.617188 5.46875 -0.328125 C 4.988281 -0.046875 4.421875 0.09375 3.765625 0.09375 Z M 3.765625 -0.703125 C 4.265625 -0.703125 4.695312 -0.8125 5.0625 -1.03125 C 5.425781 -1.25 5.703125 -1.550781 5.890625 -1.9375 C 6.085938 -2.320312 6.1875 -2.753906 6.1875 -3.234375 C 6.1875 -3.722656 6.085938 -4.15625 5.890625 -4.53125 C 5.703125 -4.914062 5.425781 -5.21875 5.0625 -5.4375 C 4.695312 -5.664062 4.265625 -5.78125 3.765625 -5.78125 C 3.265625 -5.78125 2.832031 -5.664062 2.46875 -5.4375 C 2.113281 -5.21875 1.835938 -4.914062 1.640625 -4.53125 C 1.453125 -4.15625 1.359375 -3.722656 1.359375 -3.234375 C 1.359375 -2.753906 1.453125 -2.320312 1.640625 -1.9375 C 1.835938 -1.550781 2.113281 -1.25 2.46875 -1.03125 C 2.832031 -0.8125 3.265625 -0.703125 3.765625 -0.703125 Z M 3.765625 -0.703125 "/></g></g></g><g fill="#ffffff" fill-opacity="1"><g transform="translate(26.367474, 141.807929)"><g><path d="M 0.875 0.046875 C 0.757812 0.046875 0.660156 0.0078125 0.578125 -0.0625 C 0.503906 -0.144531 0.46875 -0.25 0.46875 -0.375 C 0.46875 -0.425781 0.484375 -0.488281 0.515625 -0.5625 L 2.875 -6.140625 C 2.925781 -6.253906 2.992188 -6.347656 3.078125 -6.421875 C 3.171875 -6.492188 3.285156 -6.53125 3.421875 -6.53125 L 3.515625 -6.53125 C 3.640625 -6.53125 3.742188 -6.492188 3.828125 -6.421875 C 3.921875 -6.347656 3.992188 -6.253906 4.046875 -6.140625 L 6.40625 -0.5625 C 6.4375 -0.488281 6.453125 -0.425781 6.453125 -0.375 C 6.453125 -0.25 6.414062 -0.144531 6.34375 -0.0625 C 6.269531 0.0078125 6.171875 0.046875 6.046875 0.046875 C 5.953125 0.046875 5.867188 0.0234375 5.796875 -0.015625 C 5.734375 -0.0664062 5.679688 -0.132812 5.640625 -0.21875 L 5.046875 -1.65625 L 1.890625 -1.65625 L 1.28125 -0.21875 C 1.238281 -0.132812 1.179688 -0.0664062 1.109375 -0.015625 C 1.046875 0.0234375 0.96875 0.046875 0.875 0.046875 Z M 2.203125 -2.4375 L 4.71875 -2.4375 L 3.46875 -5.453125 Z M 2.203125 -2.4375 "/></g></g></g><g fill="#ffffff" fill-opacity="1"><g transform="translate(34.953639, 141.807929)"><g><path d="M 1.3125 0 C 1.195312 0 1.097656 -0.0351562 1.015625 -0.109375 C 0.941406 -0.191406 0.90625 -0.296875 0.90625 -0.421875 L 0.90625 -6.046875 C 0.90625 -6.171875 0.941406 -6.273438 1.015625 -6.359375 C 1.097656 -6.441406 1.195312 -6.484375 1.3125 -6.484375 L 3.1875 -6.484375 C 3.882812 -6.484375 4.476562 -6.328125 4.96875 -6.015625 C 5.46875 -5.703125 5.835938 -5.296875 6.078125 -4.796875 C 6.328125 -4.304688 6.453125 -3.785156 6.453125 -3.234375 C 6.453125 -2.691406 6.328125 -2.171875 6.078125 -1.671875 C 5.835938 -1.179688 5.46875 -0.78125 4.96875 -0.46875 C 4.476562 -0.15625 3.882812 0 3.1875 0 Z M 3.078125 -0.78125 C 3.585938 -0.78125 4.035156 -0.882812 4.421875 -1.09375 C 4.804688 -1.300781 5.101562 -1.585938 5.3125 -1.953125 C 5.519531 -2.328125 5.625 -2.753906 5.625 -3.234375 C 5.625 -3.722656 5.519531 -4.148438 5.3125 -4.515625 C 5.101562 -4.878906 4.804688 -5.164062 4.421875 -5.375 C 4.035156 -5.582031 3.585938 -5.6875 3.078125 -5.6875 L 1.75 -5.6875 L 1.75 -0.78125 Z M 3.078125 -0.78125 "/></g></g></g><g fill="#ffffff" fill-opacity="1"><g transform="translate(43.586164, 141.807929)"><g/></g></g><g fill="#ffffff" fill-opacity="1"><g transform="translate(47.666761, 141.807929)"><g><path d="M 3.125 0.046875 C 2.863281 0.046875 2.671875 -0.09375 2.546875 -0.375 L 0.25 -5.9375 C 0.226562 -5.988281 0.21875 -6.039062 0.21875 -6.09375 C 0.21875 -6.226562 0.253906 -6.332031 0.328125 -6.40625 C 0.410156 -6.488281 0.515625 -6.53125 0.640625 -6.53125 C 0.722656 -6.53125 0.800781 -6.5 0.875 -6.4375 C 0.945312 -6.382812 1.003906 -6.316406 1.046875 -6.234375 L 3.21875 -0.796875 L 5.40625 -6.234375 C 5.4375 -6.316406 5.488281 -6.382812 5.5625 -6.4375 C 5.632812 -6.5 5.710938 -6.53125 5.796875 -6.53125 C 5.929688 -6.53125 6.035156 -6.488281 6.109375 -6.40625 C 6.179688 -6.332031 6.21875 -6.226562 6.21875 -6.09375 C 6.21875 -6.039062 6.207031 -5.988281 6.1875 -5.9375 L 3.890625 -0.375 C 3.765625 -0.09375 3.578125 0.046875 3.328125 0.046875 Z M 3.125 0.046875 "/></g></g></g><g fill="#ffffff" fill-opacity="1"><g transform="translate(55.770849, 141.807929)"><g><path d="M 1.3125 0 C 1.195312 0 1.097656 -0.0351562 1.015625 -0.109375 C 0.941406 -0.191406 0.90625 -0.296875 0.90625 -0.421875 L 0.90625 -6.046875 C 0.90625 -6.171875 0.941406 -6.273438 1.015625 -6.359375 C 1.097656 -6.441406 1.195312 -6.484375 1.3125 -6.484375 L 5.046875 -6.484375 C 5.148438 -6.484375 5.238281 -6.441406 5.3125 -6.359375 C 5.394531 -6.285156 5.4375 -6.191406 5.4375 -6.078125 C 5.4375 -5.960938 5.394531 -5.867188 5.3125 -5.796875 C 5.238281 -5.722656 5.148438 -5.6875 5.046875 -5.6875 L 1.75 -5.6875 L 1.75 -3.640625 L 4.703125 -3.640625 C 4.816406 -3.640625 4.910156 -3.597656 4.984375 -3.515625 C 5.066406 -3.441406 5.109375 -3.347656 5.109375 -3.234375 C 5.109375 -3.128906 5.066406 -3.035156 4.984375 -2.953125 C 4.910156 -2.878906 4.816406 -2.84375 4.703125 -2.84375 L 1.75 -2.84375 L 1.75 -0.78125 L 5.046875 -0.78125 C 5.148438 -0.78125 5.238281 -0.742188 5.3125 -0.671875 C 5.394531 -0.597656 5.4375 -0.503906 5.4375 -0.390625 C 5.4375 -0.273438 5.394531 -0.179688 5.3125 -0.109375 C 5.238281 -0.0351562 5.148438 0 5.046875 0 Z M 1.3125 0 "/></g></g></g><g fill="#ffffff" fill-opacity="1"><g transform="translate(63.355782, 141.807929)"><g><path d="M 1.3125 0.046875 C 1.195312 0.046875 1.097656 0.0078125 1.015625 -0.0625 C 0.941406 -0.144531 0.90625 -0.25 0.90625 -0.375 L 0.90625 -6.09375 C 0.90625 -6.21875 0.941406 -6.320312 1.015625 -6.40625 C 1.097656 -6.488281 1.195312 -6.53125 1.3125 -6.53125 C 1.4375 -6.53125 1.539062 -6.488281 1.625 -6.40625 C 1.707031 -6.320312 1.75 -6.21875 1.75 -6.09375 L 1.75 -3.625 L 5.265625 -3.625 L 5.265625 -6.09375 C 5.265625 -6.21875 5.300781 -6.320312 5.375 -6.40625 C 5.457031 -6.488281 5.5625 -6.53125 5.6875 -6.53125 C 5.800781 -6.53125 5.898438 -6.488281 5.984375 -6.40625 C 6.066406 -6.320312 6.109375 -6.21875 6.109375 -6.09375 L 6.109375 -0.375 C 6.109375 -0.25 6.066406 -0.144531 5.984375 -0.0625 C 5.898438 0.0078125 5.800781 0.046875 5.6875 0.046875 C 5.5625 0.046875 5.457031 0.0078125 5.375 -0.0625 C 5.300781 -0.144531 5.265625 -0.25 5.265625 -0.375 L 5.265625 -2.84375 L 1.75 -2.84375 L 1.75 -0.375 C 1.75 -0.25 1.707031 -0.144531 1.625 -0.0625 C 1.539062 0.0078125 1.4375 0.046875 1.3125 0.046875 Z M 1.3125 0.046875 "/></g></g></g><g fill="#ffffff" fill-opacity="1"><g transform="translate(72.025386, 141.807929)"><g><path d="M 1.3125 0.046875 C 1.195312 0.046875 1.097656 0.0078125 1.015625 -0.0625 C 0.941406 -0.144531 0.90625 -0.25 0.90625 -0.375 L 0.90625 -6.09375 C 0.90625 -6.21875 0.941406 -6.320312 1.015625 -6.40625 C 1.097656 -6.488281 1.195312 -6.53125 1.3125 -6.53125 C 1.4375 -6.53125 1.539062 -6.488281 1.625 -6.40625 C 1.707031 -6.320312 1.75 -6.21875 1.75 -6.09375 L 1.75 -0.375 C 1.75 -0.25 1.707031 -0.144531 1.625 -0.0625 C 1.539062 0.0078125 1.4375 0.046875 1.3125 0.046875 Z M 1.3125 0.046875 "/></g></g></g><g fill="#ffffff" fill-opacity="1"><g transform="translate(76.337751, 141.807929)"><g><path d="M 3.765625 0.09375 C 3.140625 0.09375 2.582031 -0.0390625 2.09375 -0.3125 C 1.601562 -0.582031 1.21875 -0.96875 0.9375 -1.46875 C 0.65625 -1.976562 0.515625 -2.566406 0.515625 -3.234375 C 0.515625 -3.910156 0.65625 -4.5 0.9375 -5 C 1.21875 -5.507812 1.601562 -5.898438 2.09375 -6.171875 C 2.582031 -6.441406 3.140625 -6.578125 3.765625 -6.578125 C 4.179688 -6.578125 4.554688 -6.523438 4.890625 -6.421875 C 5.222656 -6.328125 5.550781 -6.1875 5.875 -6 C 6.007812 -5.925781 6.078125 -5.804688 6.078125 -5.640625 C 6.078125 -5.546875 6.039062 -5.460938 5.96875 -5.390625 C 5.90625 -5.328125 5.816406 -5.296875 5.703125 -5.296875 C 5.640625 -5.296875 5.585938 -5.304688 5.546875 -5.328125 C 5.265625 -5.472656 4.992188 -5.582031 4.734375 -5.65625 C 4.484375 -5.726562 4.1875 -5.765625 3.84375 -5.765625 C 3.3125 -5.765625 2.859375 -5.65625 2.484375 -5.4375 C 2.109375 -5.21875 1.828125 -4.914062 1.640625 -4.53125 C 1.453125 -4.15625 1.359375 -3.722656 1.359375 -3.234375 C 1.359375 -2.753906 1.453125 -2.320312 1.640625 -1.9375 C 1.828125 -1.5625 2.109375 -1.265625 2.484375 -1.046875 C 2.859375 -0.828125 3.3125 -0.71875 3.84375 -0.71875 C 4.1875 -0.71875 4.484375 -0.753906 4.734375 -0.828125 C 4.992188 -0.898438 5.265625 -1.007812 5.546875 -1.15625 C 5.585938 -1.175781 5.640625 -1.1875 5.703125 -1.1875 C 5.816406 -1.1875 5.90625 -1.148438 5.96875 -1.078125 C 6.039062 -1.015625 6.078125 -0.929688 6.078125 -0.828125 C 6.078125 -0.671875 6.007812 -0.554688 5.875 -0.484375 C 5.550781 -0.296875 5.222656 -0.148438 4.890625 -0.046875 C 4.554688 0.046875 4.179688 0.09375 3.765625 0.09375 Z M 3.765625 0.09375 "/></g></g></g><g fill="#ffffff" fill-opacity="1"><g transform="translate(84.451109, 141.807929)"><g><path d="M 1.484375 0 C 1.328125 0 1.191406 -0.0546875 1.078125 -0.171875 C 0.960938 -0.285156 0.90625 -0.421875 0.90625 -0.578125 L 0.90625 -6.09375 C 0.90625 -6.21875 0.941406 -6.320312 1.015625 -6.40625 C 1.097656 -6.488281 1.195312 -6.53125 1.3125 -6.53125 C 1.4375 -6.53125 1.539062 -6.488281 1.625 -6.40625 C 1.707031 -6.320312 1.75 -6.21875 1.75 -6.09375 L 1.75 -0.84375 L 4.78125 -0.84375 C 4.894531 -0.84375 4.992188 -0.800781 5.078125 -0.71875 C 5.160156 -0.632812 5.203125 -0.535156 5.203125 -0.421875 C 5.203125 -0.296875 5.160156 -0.191406 5.078125 -0.109375 C 4.992188 -0.0351562 4.894531 0 4.78125 0 Z M 1.484375 0 "/></g></g></g><g fill="#ffffff" fill-opacity="1"><g transform="translate(91.461256, 141.807929)"><g><path d="M 1.3125 0 C 1.195312 0 1.097656 -0.0351562 1.015625 -0.109375 C 0.941406 -0.191406 0.90625 -0.296875 0.90625 -0.421875 L 0.90625 -6.046875 C 0.90625 -6.171875 0.941406 -6.273438 1.015625 -6.359375 C 1.097656 -6.441406 1.195312 -6.484375 1.3125 -6.484375 L 5.046875 -6.484375 C 5.148438 -6.484375 5.238281 -6.441406 5.3125 -6.359375 C 5.394531 -6.285156 5.4375 -6.191406 5.4375 -6.078125 C 5.4375 -5.960938 5.394531 -5.867188 5.3125 -5.796875 C 5.238281 -5.722656 5.148438 -5.6875 5.046875 -5.6875 L 1.75 -5.6875 L 1.75 -3.640625 L 4.703125 -3.640625 C 4.816406 -3.640625 4.910156 -3.597656 4.984375 -3.515625 C 5.066406 -3.441406 5.109375 -3.347656 5.109375 -3.234375 C 5.109375 -3.128906 5.066406 -3.035156 4.984375 -2.953125 C 4.910156 -2.878906 4.816406 -2.84375 4.703125 -2.84375 L 1.75 -2.84375 L 1.75 -0.78125 L 5.046875 -0.78125 C 5.148438 -0.78125 5.238281 -0.742188 5.3125 -0.671875 C 5.394531 -0.597656 5.4375 -0.503906 5.4375 -0.390625 C 5.4375 -0.273438 5.394531 -0.179688 5.3125 -0.109375 C 5.238281 -0.0351562 5.148438 0 5.046875 0 Z M 1.3125 0 "/></g></g></g><g fill="#ffffff" fill-opacity="1"><g transform="translate(99.046188, 141.807929)"><g/></g></g><g fill="#ffffff" fill-opacity="1"><g transform="translate(103.126785, 141.807929)"><g><path d="M 0.875 0.046875 C 0.757812 0.046875 0.660156 0.0078125 0.578125 -0.0625 C 0.503906 -0.144531 0.46875 -0.25 0.46875 -0.375 C 0.46875 -0.425781 0.484375 -0.488281 0.515625 -0.5625 L 2.875 -6.140625 C 2.925781 -6.253906 2.992188 -6.347656 3.078125 -6.421875 C 3.171875 -6.492188 3.285156 -6.53125 3.421875 -6.53125 L 3.515625 -6.53125 C 3.640625 -6.53125 3.742188 -6.492188 3.828125 -6.421875 C 3.921875 -6.347656 3.992188 -6.253906 4.046875 -6.140625 L 6.40625 -0.5625 C 6.4375 -0.488281 6.453125 -0.425781 6.453125 -0.375 C 6.453125 -0.25 6.414062 -0.144531 6.34375 -0.0625 C 6.269531 0.0078125 6.171875 0.046875 6.046875 0.046875 C 5.953125 0.046875 5.867188 0.0234375 5.796875 -0.015625 C 5.734375 -0.0664062 5.679688 -0.132812 5.640625 -0.21875 L 5.046875 -1.65625 L 1.890625 -1.65625 L 1.28125 -0.21875 C 1.238281 -0.132812 1.179688 -0.0664062 1.109375 -0.015625 C 1.046875 0.0234375 0.96875 0.046875 0.875 0.046875 Z M 2.203125 -2.4375 L 4.71875 -2.4375 L 3.46875 -5.453125 Z M 2.203125 -2.4375 "/></g></g></g><g fill="#ffffff" fill-opacity="1"><g transform="translate(111.712949, 141.807929)"><g><path d="M 2.9375 0.09375 C 2.15625 0.09375 1.421875 -0.0546875 0.734375 -0.359375 C 0.660156 -0.390625 0.597656 -0.4375 0.546875 -0.5 C 0.492188 -0.570312 0.46875 -0.648438 0.46875 -0.734375 C 0.46875 -0.835938 0.503906 -0.925781 0.578125 -1 C 0.648438 -1.082031 0.742188 -1.125 0.859375 -1.125 C 0.921875 -1.125 0.976562 -1.109375 1.03125 -1.078125 C 1.601562 -0.828125 2.210938 -0.703125 2.859375 -0.703125 C 3.941406 -0.703125 4.484375 -1.054688 4.484375 -1.765625 C 4.484375 -1.953125 4.410156 -2.109375 4.265625 -2.234375 C 4.128906 -2.359375 3.957031 -2.457031 3.75 -2.53125 C 3.550781 -2.601562 3.265625 -2.6875 2.890625 -2.78125 C 2.390625 -2.914062 1.984375 -3.039062 1.671875 -3.15625 C 1.359375 -3.28125 1.085938 -3.460938 0.859375 -3.703125 C 0.640625 -3.941406 0.53125 -4.265625 0.53125 -4.671875 C 0.53125 -5.023438 0.625 -5.34375 0.8125 -5.625 C 1 -5.914062 1.273438 -6.144531 1.640625 -6.3125 C 2.003906 -6.488281 2.4375 -6.578125 2.9375 -6.578125 C 3.625 -6.578125 4.242188 -6.472656 4.796875 -6.265625 C 4.960938 -6.203125 5.046875 -6.078125 5.046875 -5.890625 C 5.046875 -5.796875 5.007812 -5.707031 4.9375 -5.625 C 4.875 -5.539062 4.785156 -5.5 4.671875 -5.5 C 4.640625 -5.5 4.59375 -5.515625 4.53125 -5.546875 C 4.050781 -5.710938 3.550781 -5.796875 3.03125 -5.796875 C 2.539062 -5.796875 2.144531 -5.703125 1.84375 -5.515625 C 1.539062 -5.328125 1.390625 -5.066406 1.390625 -4.734375 C 1.390625 -4.515625 1.457031 -4.332031 1.59375 -4.1875 C 1.738281 -4.050781 1.921875 -3.941406 2.140625 -3.859375 C 2.367188 -3.785156 2.671875 -3.707031 3.046875 -3.625 C 3.535156 -3.5 3.925781 -3.378906 4.21875 -3.265625 C 4.519531 -3.148438 4.773438 -2.96875 4.984375 -2.71875 C 5.203125 -2.46875 5.3125 -2.132812 5.3125 -1.71875 C 5.3125 -1.375 5.210938 -1.0625 5.015625 -0.78125 C 4.816406 -0.507812 4.535156 -0.296875 4.171875 -0.140625 C 3.816406 0.015625 3.40625 0.09375 2.9375 0.09375 Z M 2.9375 0.09375 "/></g></g></g><g fill="#ffffff" fill-opacity="1"><g transform="translate(119.093929, 141.807929)"><g><path d="M 2.9375 0.09375 C 2.15625 0.09375 1.421875 -0.0546875 0.734375 -0.359375 C 0.660156 -0.390625 0.597656 -0.4375 0.546875 -0.5 C 0.492188 -0.570312 0.46875 -0.648438 0.46875 -0.734375 C 0.46875 -0.835938 0.503906 -0.925781 0.578125 -1 C 0.648438 -1.082031 0.742188 -1.125 0.859375 -1.125 C 0.921875 -1.125 0.976562 -1.109375 1.03125 -1.078125 C 1.601562 -0.828125 2.210938 -0.703125 2.859375 -0.703125 C 3.941406 -0.703125 4.484375 -1.054688 4.484375 -1.765625 C 4.484375 -1.953125 4.410156 -2.109375 4.265625 -2.234375 C 4.128906 -2.359375 3.957031 -2.457031 3.75 -2.53125 C 3.550781 -2.601562 3.265625 -2.6875 2.890625 -2.78125 C 2.390625 -2.914062 1.984375 -3.039062 1.671875 -3.15625 C 1.359375 -3.28125 1.085938 -3.460938 0.859375 -3.703125 C 0.640625 -3.941406 0.53125 -4.265625 0.53125 -4.671875 C 0.53125 -5.023438 0.625 -5.34375 0.8125 -5.625 C 1 -5.914062 1.273438 -6.144531 1.640625 -6.3125 C 2.003906 -6.488281 2.4375 -6.578125 2.9375 -6.578125 C 3.625 -6.578125 4.242188 -6.472656 4.796875 -6.265625 C 4.960938 -6.203125 5.046875 -6.078125 5.046875 -5.890625 C 5.046875 -5.796875 5.007812 -5.707031 4.9375 -5.625 C 4.875 -5.539062 4.785156 -5.5 4.671875 -5.5 C 4.640625 -5.5 4.59375 -5.515625 4.53125 -5.546875 C 4.050781 -5.710938 3.550781 -5.796875 3.03125 -5.796875 C 2.539062 -5.796875 2.144531 -5.703125 1.84375 -5.515625 C 1.539062 -5.328125 1.390625 -5.066406 1.390625 -4.734375 C 1.390625 -4.515625 1.457031 -4.332031 1.59375 -4.1875 C 1.738281 -4.050781 1.921875 -3.941406 2.140625 -3.859375 C 2.367188 -3.785156 2.671875 -3.707031 3.046875 -3.625 C 3.535156 -3.5 3.925781 -3.378906 4.21875 -3.265625 C 4.519531 -3.148438 4.773438 -2.96875 4.984375 -2.71875 C 5.203125 -2.46875 5.3125 -2.132812 5.3125 -1.71875 C 5.3125 -1.375 5.210938 -1.0625 5.015625 -0.78125 C 4.816406 -0.507812 4.535156 -0.296875 4.171875 -0.140625 C 3.816406 0.015625 3.40625 0.09375 2.9375 0.09375 Z M 2.9375 0.09375 "/></g></g></g><g fill="#ffffff" fill-opacity="1"><g transform="translate(126.474896, 141.807929)"><g><path d="M 1.3125 0.046875 C 1.195312 0.046875 1.097656 0.0078125 1.015625 -0.0625 C 0.941406 -0.144531 0.90625 -0.25 0.90625 -0.375 L 0.90625 -6.09375 C 0.90625 -6.21875 0.941406 -6.320312 1.015625 -6.40625 C 1.097656 -6.488281 1.195312 -6.53125 1.3125 -6.53125 C 1.4375 -6.53125 1.539062 -6.488281 1.625 -6.40625 C 1.707031 -6.320312 1.75 -6.21875 1.75 -6.09375 L 1.75 -0.375 C 1.75 -0.25 1.707031 -0.144531 1.625 -0.0625 C 1.539062 0.0078125 1.4375 0.046875 1.3125 0.046875 Z M 1.3125 0.046875 "/></g></g></g><g fill="#ffffff" fill-opacity="1"><g transform="translate(130.787256, 141.807929)"><g><path d="M 2.9375 0.09375 C 2.15625 0.09375 1.421875 -0.0546875 0.734375 -0.359375 C 0.660156 -0.390625 0.597656 -0.4375 0.546875 -0.5 C 0.492188 -0.570312 0.46875 -0.648438 0.46875 -0.734375 C 0.46875 -0.835938 0.503906 -0.925781 0.578125 -1 C 0.648438 -1.082031 0.742188 -1.125 0.859375 -1.125 C 0.921875 -1.125 0.976562 -1.109375 1.03125 -1.078125 C 1.601562 -0.828125 2.210938 -0.703125 2.859375 -0.703125 C 3.941406 -0.703125 4.484375 -1.054688 4.484375 -1.765625 C 4.484375 -1.953125 4.410156 -2.109375 4.265625 -2.234375 C 4.128906 -2.359375 3.957031 -2.457031 3.75 -2.53125 C 3.550781 -2.601562 3.265625 -2.6875 2.890625 -2.78125 C 2.390625 -2.914062 1.984375 -3.039062 1.671875 -3.15625 C 1.359375 -3.28125 1.085938 -3.460938 0.859375 -3.703125 C 0.640625 -3.941406 0.53125 -4.265625 0.53125 -4.671875 C 0.53125 -5.023438 0.625 -5.34375 0.8125 -5.625 C 1 -5.914062 1.273438 -6.144531 1.640625 -6.3125 C 2.003906 -6.488281 2.4375 -6.578125 2.9375 -6.578125 C 3.625 -6.578125 4.242188 -6.472656 4.796875 -6.265625 C 4.960938 -6.203125 5.046875 -6.078125 5.046875 -5.890625 C 5.046875 -5.796875 5.007812 -5.707031 4.9375 -5.625 C 4.875 -5.539062 4.785156 -5.5 4.671875 -5.5 C 4.640625 -5.5 4.59375 -5.515625 4.53125 -5.546875 C 4.050781 -5.710938 3.550781 -5.796875 3.03125 -5.796875 C 2.539062 -5.796875 2.144531 -5.703125 1.84375 -5.515625 C 1.539062 -5.328125 1.390625 -5.066406 1.390625 -4.734375 C 1.390625 -4.515625 1.457031 -4.332031 1.59375 -4.1875 C 1.738281 -4.050781 1.921875 -3.941406 2.140625 -3.859375 C 2.367188 -3.785156 2.671875 -3.707031 3.046875 -3.625 C 3.535156 -3.5 3.925781 -3.378906 4.21875 -3.265625 C 4.519531 -3.148438 4.773438 -2.96875 4.984375 -2.71875 C 5.203125 -2.46875 5.3125 -2.132812 5.3125 -1.71875 C 5.3125 -1.375 5.210938 -1.0625 5.015625 -0.78125 C 4.816406 -0.507812 4.535156 -0.296875 4.171875 -0.140625 C 3.816406 0.015625 3.40625 0.09375 2.9375 0.09375 Z M 2.9375 0.09375 "/></g></g></g><g fill="#ffffff" fill-opacity="1"><g transform="translate(138.168224, 141.807929)"><g><path d="M 2.828125 0.046875 C 2.703125 0.046875 2.597656 0.0078125 2.515625 -0.0625 C 2.441406 -0.144531 2.40625 -0.25 2.40625 -0.375 L 2.40625 -5.6875 L 0.515625 -5.6875 C 0.398438 -5.6875 0.304688 -5.722656 0.234375 -5.796875 C 0.160156 -5.867188 0.125 -5.960938 0.125 -6.078125 C 0.125 -6.191406 0.160156 -6.285156 0.234375 -6.359375 C 0.304688 -6.441406 0.398438 -6.484375 0.515625 -6.484375 L 5.125 -6.484375 C 5.238281 -6.484375 5.332031 -6.441406 5.40625 -6.359375 C 5.488281 -6.285156 5.53125 -6.191406 5.53125 -6.078125 C 5.53125 -5.960938 5.488281 -5.867188 5.40625 -5.796875 C 5.332031 -5.722656 5.238281 -5.6875 5.125 -5.6875 L 3.25 -5.6875 L 3.25 -0.375 C 3.25 -0.25 3.207031 -0.144531 3.125 -0.0625 C 3.039062 0.0078125 2.941406 0.046875 2.828125 0.046875 Z M 2.828125 0.046875 "/></g></g></g><g fill="#ffffff" fill-opacity="1"><g transform="translate(145.484303, 141.807929)"><g><path d="M 0.875 0.046875 C 0.757812 0.046875 0.660156 0.0078125 0.578125 -0.0625 C 0.503906 -0.144531 0.46875 -0.25 0.46875 -0.375 C 0.46875 -0.425781 0.484375 -0.488281 0.515625 -0.5625 L 2.875 -6.140625 C 2.925781 -6.253906 2.992188 -6.347656 3.078125 -6.421875 C 3.171875 -6.492188 3.285156 -6.53125 3.421875 -6.53125 L 3.515625 -6.53125 C 3.640625 -6.53125 3.742188 -6.492188 3.828125 -6.421875 C 3.921875 -6.347656 3.992188 -6.253906 4.046875 -6.140625 L 6.40625 -0.5625 C 6.4375 -0.488281 6.453125 -0.425781 6.453125 -0.375 C 6.453125 -0.25 6.414062 -0.144531 6.34375 -0.0625 C 6.269531 0.0078125 6.171875 0.046875 6.046875 0.046875 C 5.953125 0.046875 5.867188 0.0234375 5.796875 -0.015625 C 5.734375 -0.0664062 5.679688 -0.132812 5.640625 -0.21875 L 5.046875 -1.65625 L 1.890625 -1.65625 L 1.28125 -0.21875 C 1.238281 -0.132812 1.179688 -0.0664062 1.109375 -0.015625 C 1.046875 0.0234375 0.96875 0.046875 0.875 0.046875 Z M 2.203125 -2.4375 L 4.71875 -2.4375 L 3.46875 -5.453125 Z M 2.203125 -2.4375 "/></g></g></g><g fill="#ffffff" fill-opacity="1"><g transform="translate(154.070462, 141.807929)"><g><path d="M 1.3125 0.046875 C 1.195312 0.046875 1.097656 0.0078125 1.015625 -0.0625 C 0.941406 -0.144531 0.90625 -0.25 0.90625 -0.375 L 0.90625 -5.90625 C 0.90625 -6.070312 0.960938 -6.21875 1.078125 -6.34375 C 1.191406 -6.46875 1.332031 -6.53125 1.5 -6.53125 L 1.625 -6.53125 C 1.820312 -6.53125 1.992188 -6.4375 2.140625 -6.25 L 5.703125 -1.078125 L 5.703125 -6.09375 C 5.703125 -6.21875 5.742188 -6.320312 5.828125 -6.40625 C 5.910156 -6.488281 6.007812 -6.53125 6.125 -6.53125 C 6.238281 -6.53125 6.335938 -6.488281 6.421875 -6.40625 C 6.503906 -6.320312 6.546875 -6.21875 6.546875 -6.09375 L 6.546875 -0.5625 C 6.546875 -0.394531 6.484375 -0.25 6.359375 -0.125 C 6.242188 -0.0078125 6.101562 0.046875 5.9375 0.046875 L 5.828125 0.046875 C 5.734375 0.046875 5.640625 0.0234375 5.546875 -0.015625 C 5.460938 -0.0664062 5.394531 -0.128906 5.34375 -0.203125 L 1.75 -5.390625 L 1.75 -0.375 C 1.75 -0.25 1.707031 -0.144531 1.625 -0.0625 C 1.539062 0.0078125 1.4375 0.046875 1.3125 0.046875 Z M 1.3125 0.046875 "/></g></g></g><g fill="#ffffff" fill-opacity="1"><g transform="translate(163.185069, 141.807929)"><g><path d="M 3.765625 0.09375 C 3.140625 0.09375 2.582031 -0.0390625 2.09375 -0.3125 C 1.601562 -0.582031 1.21875 -0.96875 0.9375 -1.46875 C 0.65625 -1.976562 0.515625 -2.566406 0.515625 -3.234375 C 0.515625 -3.910156 0.65625 -4.5 0.9375 -5 C 1.21875 -5.507812 1.601562 -5.898438 2.09375 -6.171875 C 2.582031 -6.441406 3.140625 -6.578125 3.765625 -6.578125 C 4.179688 -6.578125 4.554688 -6.523438 4.890625 -6.421875 C 5.222656 -6.328125 5.550781 -6.1875 5.875 -6 C 6.007812 -5.925781 6.078125 -5.804688 6.078125 -5.640625 C 6.078125 -5.546875 6.039062 -5.460938 5.96875 -5.390625 C 5.90625 -5.328125 5.816406 -5.296875 5.703125 -5.296875 C 5.640625 -5.296875 5.585938 -5.304688 5.546875 -5.328125 C 5.265625 -5.472656 4.992188 -5.582031 4.734375 -5.65625 C 4.484375 -5.726562 4.1875 -5.765625 3.84375 -5.765625 C 3.3125 -5.765625 2.859375 -5.65625 2.484375 -5.4375 C 2.109375 -5.21875 1.828125 -4.914062 1.640625 -4.53125 C 1.453125 -4.15625 1.359375 -3.722656 1.359375 -3.234375 C 1.359375 -2.753906 1.453125 -2.320312 1.640625 -1.9375 C 1.828125 -1.5625 2.109375 -1.265625 2.484375 -1.046875 C 2.859375 -0.828125 3.3125 -0.71875 3.84375 -0.71875 C 4.1875 -0.71875 4.484375 -0.753906 4.734375 -0.828125 C 4.992188 -0.898438 5.265625 -1.007812 5.546875 -1.15625 C 5.585938 -1.175781 5.640625 -1.1875 5.703125 -1.1875 C 5.816406 -1.1875 5.90625 -1.148438 5.96875 -1.078125 C 6.039062 -1.015625 6.078125 -0.929688 6.078125 -0.828125 C 6.078125 -0.671875 6.007812 -0.554688 5.875 -0.484375 C 5.550781 -0.296875 5.222656 -0.148438 4.890625 -0.046875 C 4.554688 0.046875 4.179688 0.09375 3.765625 0.09375 Z M 3.765625 0.09375 "/></g></g></g><g fill="#ffffff" fill-opacity="1"><g transform="translate(171.298421, 141.807929)"><g><path d="M 1.3125 0 C 1.195312 0 1.097656 -0.0351562 1.015625 -0.109375 C 0.941406 -0.191406 0.90625 -0.296875 0.90625 -0.421875 L 0.90625 -6.046875 C 0.90625 -6.171875 0.941406 -6.273438 1.015625 -6.359375 C 1.097656 -6.441406 1.195312 -6.484375 1.3125 -6.484375 L 5.046875 -6.484375 C 5.148438 -6.484375 5.238281 -6.441406 5.3125 -6.359375 C 5.394531 -6.285156 5.4375 -6.191406 5.4375 -6.078125 C 5.4375 -5.960938 5.394531 -5.867188 5.3125 -5.796875 C 5.238281 -5.722656 5.148438 -5.6875 5.046875 -5.6875 L 1.75 -5.6875 L 1.75 -3.640625 L 4.703125 -3.640625 C 4.816406 -3.640625 4.910156 -3.597656 4.984375 -3.515625 C 5.066406 -3.441406 5.109375 -3.347656 5.109375 -3.234375 C 5.109375 -3.128906 5.066406 -3.035156 4.984375 -2.953125 C 4.910156 -2.878906 4.816406 -2.84375 4.703125 -2.84375 L 1.75 -2.84375 L 1.75 -0.78125 L 5.046875 -0.78125 C 5.148438 -0.78125 5.238281 -0.742188 5.3125 -0.671875 C 5.394531 -0.597656 5.4375 -0.503906 5.4375 -0.390625 C 5.4375 -0.273438 5.394531 -0.179688 5.3125 -0.109375 C 5.238281 -0.0351562 5.148438 0 5.046875 0 Z M 1.3125 0 "/></g></g></g></svg>